# xmcd
# 
# Track frame offsets:
#     150
#     18876
#     38106
#     55170
#     71874
#     86147
#     98858
#     109392
#     126280
#     144155
#     163896
#     180633
#     190004
#     206748
#     218647
#     234213
#     252111
#     263470
# 
# Disc length: 3651
# 
# Revision: 1
# Processed by: cddbd v1.5.2PL0 Copyright (c) Steve Scherf et al.
# Submitted via: BonkEnc v1.0.6
# 
DISCID=f90e4112
DTITLE=Memphis Slim - Boogie for my friends
DYEAR=0
DGENRE=Blues
TTITLE0=Boogie for Roosevelt
TTITLE1=Going back to Memphis
TTITLE2=Boogie for Pineto
TTITLE3=Blues for Pete
TTITLE4=Roll and tumble
TTITLE5=Boogie for Albert
TTITLE6=Boogie for Meade
TTITLE7=Blues for Sammy
TTITLE8=Slim's Blues
TTITLE9=Blues for Jay
TTITLE10=Boogie for Lloyd
TTITLE11=Boogie for Willie
TTITLE12=Shoemaker Blues
TTITLE13=Boogie for Eddie
TTITLE14=Blues for Jimmy
TTITLE15=Blues for Otis
TTITLE16=Boogie for Booker T.
TTITLE17=Boogie for Cow Cow
EXTD=
EXTT0=
EXTT1=
EXTT2=
EXTT3=
EXTT4=
EXTT5=
EXTT6=
EXTT7=
EXTT8=
EXTT9=
EXTT10=
EXTT11=
EXTT12=
EXTT13=
EXTT14=
EXTT15=
EXTT16=
EXTT17=
PLAYORDER=
